<?xml version="1.0" encoding="UTF-8"?>
<svg xmlns="http://www.w3.org/2000/svg" width="1080" height="700" viewBox="0 0 1080 700">
<style>
  text{font-family:ui-monospace,Menlo,Consolas,"DejaVu Sans Mono",monospace;fill:#0e1626}
  .t{font-size:11.5px}.s{font-size:10px;fill:#4b5a70}.b{font-size:12.5px;font-weight:700}
  .w{fill:#ffffff}
</style>
<rect width="1080" height="700" fill="#ffffff"/>
<defs>
  <marker id="ak" markerWidth="9" markerHeight="9" refX="7" refY="3.2" orient="auto"><path d="M0,0 L7,3.2 L0,6.4 Z" fill="#0e1626"/></marker>
  <marker id="ab" markerWidth="9" markerHeight="9" refX="7" refY="3.2" orient="auto"><path d="M0,0 L7,3.2 L0,6.4 Z" fill="#2547d0"/></marker>
  <marker id="ag" markerWidth="9" markerHeight="9" refX="7" refY="3.2" orient="auto"><path d="M0,0 L7,3.2 L0,6.4 Z" fill="#0f7b5f"/></marker>
</defs>

<text class="b" x="20" y="24">Ulysses on a Gated MLA layer: the sharded axis swaps sequence for heads and back (one rank shown; cp ranks run this in lockstep)</text>
<text class="s" x="20" y="42">T tokens, L = T/cp local tokens, H heads on this rank, G = H/cp, Q/N/V query, nope-key and value head dims, R rotary width, W = Q+N+V. Line numbers: sharding.py unless named.</text>

<!-- legend -->
<g>
  <rect x="760" y="10" width="14" height="14" rx="2" fill="#eef1f8" stroke="#2547d0"/><text class="s" x="780" y="21">all-to-all (dist_nn)</text>
  <rect x="900" y="10" width="14" height="14" rx="2" fill="#e8f5ef" stroke="#0f7b5f"/><text class="s" x="920" y="21">all-gather (dist_nn)</text>
</g>

<!-- A: projections -->
<rect x="20" y="60" width="640" height="62" rx="5" fill="#f5f7fa" stroke="#0e1626" stroke-width="1.3"/>
<text class="t" x="32" y="80" font-weight="700">Projections on the local sequence chunk (seq-sharded)  --  model.py:131-135 branches here when a CP group is set</text>
<rect x="32" y="90" width="150" height="24" rx="3" class="w" stroke="#4b5a70"/><text class="t" x="107" y="106" text-anchor="middle">q [L, H, Q]</text>
<rect x="196" y="90" width="170" height="24" rx="3" class="w" stroke="#4b5a70"/><text class="t" x="281" y="106" text-anchor="middle">kv [L, H, N+V]</text>
<rect x="380" y="90" width="150" height="24" rx="3" class="w" stroke="#0f7b5f"/><text class="t" x="455" y="106" text-anchor="middle" fill="#0f7b5f">k_rope [L, R]</text>
<text class="s" x="544" y="106">headless: one vector per token</text>

<!-- B: pack -->
<path d="M200,122 L200,146" stroke="#0e1626" stroke-width="1.6" marker-end="url(#ak)"/>
<rect x="20" y="150" width="440" height="40" rx="5" fill="#f5f7fa" stroke="#0e1626" stroke-width="1.3"/>
<text class="t" x="32" y="168">pack q and kv along the channel dim  ->  [L, H, W]</text>
<text class="s" x="32" y="183">one collective moves both  (223)</text>

<!-- C: all-to-all 1 -->
<path d="M200,190 L200,214" stroke="#2547d0" stroke-width="1.8" marker-end="url(#ab)"/>
<rect x="20" y="218" width="440" height="72" rx="5" fill="#eef1f8" stroke="#2547d0" stroke-width="1.8"/>
<text class="t" x="32" y="238" font-weight="700" fill="#2547d0">all-to-all 1: sequence -> heads   (156-165, called at 224-227)</text>
<text class="s" x="32" y="255">view [L, H, W] as [cp, L, G, W], dim 0 = destination rank, then all_to_all_single</text>
<text class="s" x="32" y="270">recv[s] = source s's L tokens for THIS rank's G heads; stack in source order</text>
<text class="t" x="32" y="285">->  [T, G, W]: the full sequence for G heads</text>

<!-- D: split -->
<path d="M200,290 L200,314" stroke="#0e1626" stroke-width="1.6" marker-end="url(#ak)"/>
<rect x="20" y="318" width="440" height="40" rx="5" fill="#f5f7fa" stroke="#0e1626" stroke-width="1.3"/>
<text class="t" x="32" y="336">split  ->  q [T, G, Q]   k_nope [T, G, N]   v [T, G, V]</text>
<text class="s" x="32" y="351">(228-232)</text>

<!-- rotary lane -->
<path d="M455,122 L455,146" stroke="#0f7b5f" stroke-width="1.6" marker-end="url(#ag)"/>
<path d="M455,146 L760,146 L760,150" stroke="#0f7b5f" stroke-width="1.6" fill="none"/>
<rect x="640" y="150" width="420" height="40" rx="5" fill="#f5f7fa" stroke="#0f7b5f" stroke-width="1.3"/>
<text class="t" x="652" y="168" fill="#0f7b5f">rotary key stays OUT of the all-to-all</text>
<text class="s" x="652" y="183">packing the pre-expanded key would reassemble it against the wrong head subset</text>

<path d="M850,190 L850,214" stroke="#0f7b5f" stroke-width="1.8" marker-end="url(#ag)"/>
<rect x="640" y="218" width="420" height="72" rx="5" fill="#e8f5ef" stroke="#0f7b5f" stroke-width="1.8"/>
<text class="t" x="652" y="238" font-weight="700" fill="#0f7b5f">all-gather along the sequence   (234-238)</text>
<text class="s" x="652" y="255">dist_nn.all_gather of [L, R] over the cp group, concatenated on dim 0</text>
<text class="t" x="652" y="285">->  [T, R]</text>

<path d="M850,290 L850,314" stroke="#0f7b5f" stroke-width="1.6" marker-end="url(#ag)"/>
<rect x="640" y="318" width="420" height="40" rx="5" fill="#f5f7fa" stroke="#0f7b5f" stroke-width="1.3"/>
<text class="t" x="652" y="336" fill="#0f7b5f">expand onto the G local heads -> [T, G, R]; concat with k_nope -> k [T, G, N+R]</text>
<text class="s" x="652" y="351">(239-247)</text>

<!-- E: attention -->
<path d="M200,358 L200,392" stroke="#0e1626" stroke-width="1.6" marker-end="url(#ak)"/>
<path d="M850,358 L850,376 L420,376 L420,392" stroke="#0f7b5f" stroke-width="1.6" fill="none" marker-end="url(#ag)"/>
<rect x="20" y="396" width="1040" height="56" rx="5" fill="#f5f7fa" stroke="#0e1626" stroke-width="1.3"/>
<text class="t" x="32" y="416" font-weight="700">attention backend, unchanged, on the full sequence for this rank's G heads   (249-255)</text>
<text class="s" x="32" y="432">causal mask rebuilt for length T (full_sequence_causal_mask 176-196; a stream wider than the context window is rejected: a causal-only mask cannot see a document boundary)</text>
<text class="t" x="32" y="447">->  out [T, G, V]</text>

<!-- F: all-to-all 2 -->
<path d="M200,452 L200,476" stroke="#2547d0" stroke-width="1.8" marker-end="url(#ab)"/>
<rect x="20" y="480" width="1040" height="72" rx="5" fill="#eef1f8" stroke="#2547d0" stroke-width="1.8"/>
<text class="t" x="32" y="500" font-weight="700" fill="#2547d0">all-to-all 2: heads -> sequence   (166-173, called at 256-259)</text>
<text class="s" x="32" y="517">view [T, G, V] as [cp, L, G, V], dim 0 = destination sequence chunk, then all_to_all_single</text>
<text class="s" x="32" y="532">out[s] = source s's head subset for THIS rank's L tokens; stack heads in source order</text>
<text class="t" x="32" y="547">->  [L, H, V]: the layer's normal layout, back to wo and the gate (model.py:144-145)</text>

<!-- footer -->
<rect x="20" y="572" width="1040" height="108" rx="5" fill="#ffffff" stroke="#c6cdd9"/>
<text class="t" x="32" y="592" font-weight="700">Per layer: two all-to-alls on the packed q/kv, one all-gather on the rotary key. No other communication.</text>
<text class="s" x="32" y="612">All three go through torch.distributed.nn.functional, so the backward is the transposed collective (all-to-all back, reduce-scatter for the gather).</text>
<text class="s" x="32" y="630">The placement pair S(seq) &lt;-&gt; S(heads) is declared once as a contract (99-109); cp_all_to_all_headseq takes its dims from it (149-153), so a pair with no implementation raises.</text>
<text class="s" x="32" y="648">n_heads % cp == 0 is checked at wiring time (parallelize.py:128-132). H is already TP-local: TP splits the heads first, Ulysses splits what TP left.</text>
<text class="s" x="32" y="668">KDA layers do not take this path: their sequence stays sharded end to end (KCP, fla-core's CP ops), so the two mechanisms run at once on disjoint layer kinds.</text>
</svg>
